<?xml version="1.0" encoding="UTF-8"?>
<svg width="145px" height="236px" viewBox="0 0 145 236" version="1.1" xmlns="http://www.w3.org/2000/svg" xmlns:xlink="http://www.w3.org/1999/xlink">
    <title>Eco-score B</title>
    <g id="Page-1" stroke="none" stroke-width="1" fill="none" fill-rule="evenodd">
        <g id="Eco-score---B" transform="translate(-225.000000, -303.000000)" fill-rule="nonzero">
            <g id="Eco-score-B" transform="translate(225.561742, 303.081406)">
                <path d="M24.541394,2.32739151 C12.343566,2.32739151 2.42234202,11.862189 2.42234202,23.57864 L2.42234202,212.262963 C2.42234202,223.979414 12.3457741,233.512004 24.541394,233.512004 L119.335123,233.512004 C131.532951,233.512004 141.454175,223.979414 141.454175,212.262963 L141.454175,23.5764318 C141.454175,11.8599808 131.530742,2.32739151 119.335123,2.32739151 L24.541394,2.32739151 L24.541394,2.32739151 Z" id="bg" fill="#FFFFFF"></path>
                <path d="M119.335123,235.837187 L24.541394,235.837187 C11.0098426,235.837187 0,225.260142 0,212.260755 L0,23.5764318 C0,10.5770449 11.0098426,0 24.541394,0 L119.335123,0 C132.866674,0 143.876517,10.5770449 143.876517,23.5764318 L143.876517,212.260755 C143.876517,225.26235 132.866674,235.837187 119.335123,235.837187 Z M24.541394,2.32739151 C12.343566,2.32739151 2.42234202,11.862189 2.42234202,23.57864 L2.42234202,212.262963 C2.42234202,223.979414 12.3457741,233.512004 24.541394,233.512004 L119.335123,233.512004 C131.532951,233.512004 141.454175,223.979414 141.454175,212.262963 L141.454175,23.5764318 C141.454175,11.8599808 131.530742,2.32739151 119.335123,2.32739151 L24.541394,2.32739151 L24.541394,2.32739151 Z" id="border" fill="#2ECC71"></path>
                <g id="title" transform="translate(11.963764, 123.073523)">
                    <g id="Group" transform="translate(4.626077, 0.000000)" fill="#1D1D1B">
                        <path d="M36.3483791,21.5692223 L8.23861264,21.5692223 C9.12628947,28.0788524 14.6996634,31.371206 20.193544,31.371206 C28.2709616,31.371206 32.3096704,27.4495293 32.3096704,27.4495293 L32.3096704,35.2906747 C32.3096704,35.2906747 28.2709616,39.2123514 20.193544,39.2123514 C8.07741759,39.2123514 0,31.371206 0,19.6061757 C0,7.84335355 8.07741759,0 18.1752936,0 C28.2731697,0 36.3505873,7.84114539 36.3505873,19.6061757 L36.3505873,21.5692223 L36.3483791,21.5692223 Z M8.48150928,15.6867071 L27.8668699,15.6867071 C26.7362964,10.4335151 23.1016793,7.8455617 18.1730855,7.8455617 C13.2444917,7.8455617 9.61208277,10.4335151 8.48150928,15.6867071 Z" id="Shape"></path>
                        <path d="M68.7684571,1.96304654 L68.7684571,9.80419193 C68.7684571,9.80419193 62.8859419,7.84335355 58.9664733,7.84335355 C53.0839581,7.84335355 47.2036511,11.7650303 47.2036511,19.6061757 C47.2036511,27.4473211 53.0861663,31.3689979 58.9664733,31.3689979 C62.8881501,31.3689979 68.7684571,29.4081595 68.7684571,29.4081595 L68.7684571,37.251513 C68.7684571,37.251513 64.8467803,39.2123514 58.9664733,39.2123514 C47.2036511,39.2123514 39.3602976,31.371206 39.3602976,19.6061757 C39.3602976,7.84335355 47.2036511,0 58.9664733,0 C64.8467803,0.00220815134 68.7684571,1.96304654 68.7684571,1.96304654 Z" id="Path"></path>
                        <path d="M110.959605,19.6083839 C110.959605,31.371206 103.116251,39.2145596 91.3534289,39.2145596 C79.5906068,39.2145596 71.7472532,31.3734142 71.7472532,19.6083839 C71.7472532,7.8455617 79.5906068,0.00220815134 91.3534289,0.00220815134 C103.118459,0.00220815134 110.959605,7.8455617 110.959605,19.6083839 Z M79.5906068,19.6083839 C79.5906068,27.4495293 85.4731219,31.371206 91.3534289,31.371206 C97.2359441,31.371206 103.116251,27.4495293 103.116251,19.6083839 C103.116251,11.7650303 97.2337359,7.8455617 91.3534289,7.8455617 C85.4731219,7.8455617 79.5906068,11.7650303 79.5906068,19.6083839 Z" id="Shape"></path>
                        <path d="M8.62503912,97.015129 C4.6327015,97.015129 0.640363887,95.6836137 0.640363887,95.6836137 L0.640363887,90.361969 C0.640363887,90.361969 4.6327015,91.6934842 8.62503912,91.6934842 C11.2858615,91.6934842 12.6173767,90.361969 12.6173767,89.0326619 C12.6173767,85.0403243 0.0154570594,87.7011466 0.0154570594,78.3871643 C0.0154570594,73.0655196 3.3033944,70.4024891 8.62724727,70.4024891 C12.6195849,70.4024891 16.6119225,71.7340043 16.6119225,71.7340043 L16.6119225,77.055649 C16.6119225,77.055649 12.6195849,75.7241338 8.62724727,75.7241338 C5.96642491,75.7241338 4.63490965,77.055649 4.63490965,78.3849561 C4.63490965,82.3772937 17.9412296,79.7164714 17.9412296,89.0304537 C17.9390215,94.3543066 13.948892,97.015129 8.62503912,97.015129 Z" id="Path"></path>
                        <path d="M39.4949948,71.7340043 L39.4949948,77.055649 C39.4949948,77.055649 35.5026572,75.7241338 32.8418348,75.7241338 C28.8494972,75.7241338 24.8571596,78.3849561 24.8571596,83.708809 C24.8571596,89.0304537 28.8494972,91.6934842 32.8418348,91.6934842 C35.5026572,91.6934842 39.4949948,90.361969 39.4949948,90.361969 L39.4949948,95.6836137 C39.4949948,95.6836137 36.8341724,97.015129 32.8418348,97.015129 C24.8571596,97.015129 19.5355149,91.6934842 19.5355149,83.708809 C19.5355149,75.7241338 24.8571596,70.4024891 32.8418348,70.4024891 C36.8341724,70.4024891 39.4949948,71.7340043 39.4949948,71.7340043 Z" id="Path"></path>
                        <path d="M68.2914964,83.708809 C68.2914964,91.6934842 62.9698517,97.015129 54.9851764,97.015129 C47.0005012,97.015129 41.6788565,91.6934842 41.6788565,83.708809 C41.6788565,75.7241338 47.0005012,70.4024891 54.9851764,70.4024891 C62.9676435,70.4024891 68.2914964,75.7241338 68.2914964,83.708809 Z M47.0005012,83.708809 C47.0005012,89.0304537 50.9928388,91.6934842 54.9851764,91.6934842 C58.977514,91.6934842 62.9698517,89.0326619 62.9698517,83.708809 C62.9698517,78.3871643 58.977514,75.7241338 54.9851764,75.7241338 C50.9928388,75.7241338 47.0005012,78.3871643 47.0005012,83.708809 Z" id="Shape"></path>
                        <path d="M86.5484916,70.4024891 L86.5484916,75.7241338 C81.2268469,75.7241338 75.902994,77.055649 75.902994,83.708809 L75.902994,97.015129 L70.5813493,97.015129 L70.5813493,70.4024891 L75.902994,70.4024891 L75.902994,81.0479866 C75.902994,74.3948267 79.8953316,70.4024891 86.5484916,70.4024891 Z" id="Path"></path>
                        <path d="M110.765287,85.0403243 L92.2433139,85.0403243 C92.828474,89.4588351 96.5006297,91.6934842 100.11979,91.6934842 C105.441434,91.6934842 108.104465,89.0326619 108.104465,89.0326619 L108.104465,94.3543066 C108.104465,94.3543066 105.443643,97.015129 100.11979,97.015129 C92.1351145,97.015129 86.8134698,91.6934842 86.8134698,83.708809 C86.8134698,75.7241338 92.1351145,70.4024891 98.7882745,70.4024891 C105.441434,70.4024891 110.763079,75.7241338 110.763079,83.708809 L110.763079,85.0403243 L110.765287,85.0403243 Z M92.4023008,81.0479866 L105.176456,81.0479866 C104.432309,77.4818222 102.036465,75.7263419 98.7904826,75.7263419 C95.5445002,75.7263419 93.148656,77.4818222 92.4023008,81.0479866 Z" id="Shape"></path>
                    </g>
                    <g id="Group" transform="translate(0.000000, 45.099283)">
                        <path d="M118.895701,9.43101436 C118.895701,4.80493731 115.144051,1.05328819 110.517974,1.05328819 L86.3718395,1.05328819 C81.7457625,1.05328819 77.9941133,4.80493731 77.9941133,9.43101436 C77.9941133,14.0570914 81.7457625,17.8087405 86.3718395,17.8087405 L110.517974,17.8087405 C115.144051,17.8065324 118.895701,14.0570914 118.895701,9.43101436 Z" id="Path" fill="#D93726"></path>
                        <path d="M119.948989,9.43101436 C119.948989,14.6312108 115.718171,18.8620287 110.517974,18.8620287 L86.3718395,18.8620287 C81.1716431,18.8620287 76.9408252,14.6312108 76.9408252,9.43101436 C76.9408252,4.23081796 81.1716431,0 86.3718395,0 L110.517974,0 C115.718171,0 119.948989,4.23081796 119.948989,9.43101436 Z M110.517974,16.7532442 C114.556683,16.7532442 117.840204,13.467515 117.840204,9.43101436 C117.840204,5.39230556 114.554475,2.10878453 110.517974,2.10878453 L86.3718395,2.10878453 C82.3331307,2.10878453 79.0496097,5.39451371 79.0496097,9.43101436 C79.0496097,13.4697232 82.3353389,16.7532442 86.3718395,16.7532442 L110.517974,16.7532442 Z" id="Shape" fill="#FFFFFF"></path>
                        <path d="M96.7435263,9.43101436 C96.7435263,4.80493731 92.9918772,1.05328819 88.3658002,1.05328819 L65.1890437,1.05328819 C60.5629667,1.05328819 56.8113176,4.80493731 56.8113176,9.43101436 C56.8113176,14.0570914 60.5629667,17.8087405 65.1890437,17.8087405 L88.3658002,17.8087405 C92.9918772,17.8065324 96.7435263,14.0570914 96.7435263,9.43101436 Z" id="Path" fill="#EF7E1A"></path>
                        <path d="M97.7968145,9.43101436 C97.7968145,14.6312108 93.5659966,18.8620287 88.3658002,18.8620287 L65.2332068,18.8620287 C60.0330104,18.8620287 55.8021924,14.6312108 55.8021924,9.43101436 C55.8021924,4.23081796 60.0330104,0 65.2332068,0 L88.3658002,0 C93.5659966,0 97.7968145,4.23081796 97.7968145,9.43101436 Z M88.3658002,16.7532442 C92.404509,16.7532442 95.68803,13.467515 95.68803,9.43101436 C95.68803,5.39230556 92.4023008,2.10878453 88.3658002,2.10878453 L65.2332068,2.10878453 C61.194498,2.10878453 57.9109769,5.39451371 57.9109769,9.43101436 C57.9109769,13.4697232 61.1967061,16.7532442 65.2332068,16.7532442 L88.3658002,16.7532442 Z" id="Shape" fill="#FFFFFF"></path>
                        <path d="M75.887537,9.43101436 C75.887537,4.80493731 72.1358878,1.05328819 67.5098108,1.05328819 L44.0967822,1.05328819 C39.4707051,1.05328819 35.719056,4.80493731 35.719056,9.43101436 C35.719056,14.0570914 39.4707051,17.8087405 44.0967822,17.8087405 L67.5098108,17.8087405 C72.1358878,17.8065324 75.887537,14.0570914 75.887537,9.43101436 Z" id="Path" fill="#F5C100"></path>
                        <path d="M76.9408252,9.43101436 C76.9408252,14.6312108 72.7100072,18.8620287 67.5098108,18.8620287 L44.0967822,18.8620287 C38.8965858,18.8620287 34.6657678,14.6312108 34.6657678,9.43101436 C34.6657678,4.23081796 38.8965858,0 44.0967822,0 L67.5098108,0 C72.7100072,0 76.9408252,4.23081796 76.9408252,9.43101436 Z M67.5098108,16.7532442 C71.5485196,16.7532442 74.8320406,13.467515 74.8320406,9.43101436 C74.8320406,5.39230556 71.5463114,2.10878453 67.5098108,2.10878453 L44.0967822,2.10878453 C40.0580734,2.10878453 36.7745524,5.39451371 36.7745524,9.43101436 C36.7745524,13.4697232 40.0602815,16.7532442 44.0967822,16.7532442 L67.5098108,16.7532442 Z" id="Shape" fill="#FFFFFF"></path>
                        <path d="M54.7489042,9.43101436 C54.7489042,4.80493731 50.9972551,1.05328819 46.3711781,1.05328819 L22.9581494,1.05328819 C18.3320724,1.05328819 14.5804233,4.80493731 14.5804233,9.43101436 C14.5804233,14.0570914 18.3320724,17.8087405 22.9581494,17.8087405 L46.3711781,17.8087405 C50.9994633,17.8065324 54.7489042,14.0570914 54.7489042,9.43101436 Z" id="Path" fill="#2ECC71"></path>
                        <path d="M55.8044006,9.43101436 C55.8044006,14.6312108 51.5735826,18.8620287 46.3733862,18.8620287 L22.9603576,18.8620287 C17.7601612,18.8620287 13.5293432,14.6312108 13.5293432,9.43101436 C13.5293432,4.23081796 17.7601612,0 22.9603576,0 L46.3733862,0 C51.5735826,0 55.8044006,4.23081796 55.8044006,9.43101436 Z M46.3733862,16.7532442 C50.412095,16.7532442 53.695616,13.467515 53.695616,9.43101436 C53.695616,5.39230556 50.4098869,2.10878453 46.3733862,2.10878453 L22.9603576,2.10878453 C18.9216488,2.10878453 15.6381278,5.39451371 15.6381278,9.43101436 C15.6381278,13.4697232 18.923857,16.7532442 22.9603576,16.7532442 L46.3733862,16.7532442 Z" id="Shape" fill="#FFFFFF"></path>
                        <path d="M33.6433938,9.43101436 C33.6433938,4.80493731 29.8917446,1.05328819 25.2656676,1.05328819 L9.43101436,1.05328819 C4.80493731,1.05328819 1.05328819,4.80493731 1.05328819,9.43101436 C1.05328819,14.0570914 4.80493731,17.8087405 9.43101436,17.8087405 L25.2656676,17.8087405 C29.8917446,17.8065324 33.6433938,14.0570914 33.6433938,9.43101436 Z" id="Path" fill="#1E8F4E"></path>
                        <path d="M34.6966819,9.43101436 C34.6966819,14.6312108 30.465864,18.8620287 25.2656676,18.8620287 L9.43101436,18.8620287 C4.23081796,18.8620287 0,14.6312108 0,9.43101436 C0,4.23081796 4.23081796,0 9.43101436,0 L25.2656676,0 C30.465864,0 34.6966819,4.23081796 34.6966819,9.43101436 Z M25.2656676,16.7532442 C29.3043764,16.7532442 32.5878974,13.467515 32.5878974,9.43101436 C32.5878974,5.39451371 29.3021682,2.10878453 25.2656676,2.10878453 L9.43101436,2.10878453 C5.39230556,2.10878453 2.10878453,5.39451371 2.10878453,9.43101436 C2.10878453,13.4697232 5.39451371,16.7532442 9.43101436,16.7532442 L25.2656676,16.7532442 Z" id="Shape" fill="#FFFFFF"></path>
                    </g>
                </g>
                <g id="leaf" transform="translate(24.055025, 16.200000)">
                    <path d="M92.6067756,0.00903678281 C94.316768,-0.134272239 95.9028831,1.4494139 95.7571451,3.15940629 C95.5458251,5.59565966 92.5144749,60.9542345 74.7975935,78.6711159 C57.8191178,95.6495915 37.811721,91.6660865 24.7463104,82.2732732 C24.5884276,82.1591118 24.411113,82.0230896 24.2167957,81.8676358 L12.4387373,93.6286914 C9.59198859,96.4730112 4.97938126,96.4730112 2.13506153,93.6286914 C-0.711687176,90.7819427 -0.711687176,86.1693354 2.13506153,83.3250157 L13.8985461,71.5493862 C13.7406633,71.3526399 13.6046412,71.1753254 13.4904798,71.0174426 C4.1000954,57.9544609 0.114161424,37.9470641 17.092637,20.9661595 C34.8095185,3.24927805 90.1705223,0.215498933 92.6067756,0.00903678281 Z" fill="#2ECC71"></path>
                    <path d="M52.0772278,67.2609656 C61.0104309,67.2609656 66.550177,62.6493445 66.550177,55.2823523 C66.550177,49.7426062 62.3736145,45.5950476 56.6888489,45.1599891 L56.6888489,44.9279578 C61.1264465,44.260868 64.5489075,40.4323523 64.5489075,35.8497351 C64.5489075,29.4398719 59.6182434,25.4083289 51.7581848,25.4083289 L37.9233215,25.4083289 C35.1679504,25.4083289 33.5437317,27.0905555 33.5437317,29.9619422 L33.5437317,62.6783484 C33.5437317,65.5787391 35.1679504,67.2609656 37.9233215,67.2609656 L52.0772278,67.2609656 Z M48.596759,42.8106726 L42.3029114,42.8106726 L42.3029114,31.9342078 L49.4958801,31.9342078 C53.5854309,31.9342078 55.9347473,33.8484656 55.9347473,37.2129187 C55.9347473,40.7513953 53.2663879,42.8106726 48.596759,42.8106726 Z M49.843927,60.7350867 L42.3029114,60.7350867 L42.3029114,48.58245 L49.6408996,48.58245 C54.803595,48.58245 57.6169739,50.6707312 57.6169739,54.5862586 C57.6169739,58.5887976 54.8906067,60.7350867 49.843927,60.7350867 Z" id="B" fill="#FFFFFF"></path>
                </g>
            </g>
        </g>
    </g>
</svg>