<?xml version="1.0" encoding="UTF-8"?><svg id="Calque_2" xmlns="http://www.w3.org/2000/svg" viewBox="0 0 1611.82 868.35"><defs><style>.cls-1{fill:#fff;}.cls-2{fill:#007518;}.cls-3{fill:#f39200;}.cls-4{fill:#fff7bf;}.cls-5{fill:#dd1e00;}.cls-6{fill:#706f6f;}.cls-7{fill:#95c11f;}.cls-8{fill:#ffde00;}.cls-9{fill:#91b589;}.cls-10{fill:#c1d289;}.cls-11{fill:#dd7e6f;}</style></defs><g id="Capa_1"><path class="cls-1" d="m1611.82,661.06c0,99.11-83.66,179.46-186.85,179.46H186.85C83.65,840.52,0,760.17,0,661.06V179.46C0,80.35,83.65,0,186.85,0h1238.12c103.2,0,186.85,80.35,186.85,179.46v481.6Z"/><path class="cls-6" d="m235.46,192.77h-19.36l-44.2-68.34v68.34h-21.76v-111.46h19.41l44.15,68.26v-68.26h21.76v111.46Z"/><path class="cls-6" d="m341.76,154.57c0,11.69-3.89,21.13-11.66,28.34-7.78,7.2-17.56,10.8-29.35,10.8s-21.5-3.55-29.12-10.65c-7.93-7.3-11.9-16.8-11.9-28.49v-73.27h21.76v72.48c0,6.16,1.7,11.12,5.09,14.87,3.39,3.76,8.11,5.64,14.17,5.64s10.93-1.88,14.32-5.64c3.39-3.76,5.09-8.71,5.09-14.87v-72.48h21.6v73.27Z"/><path class="cls-6" d="m437.73,100.72h-29.12v92.05h-21.76v-92.05h-29.12v-19.41h80v19.41Z"/><path class="cls-6" d="m539.8,192.77h-25.39l-21.62-44.46h-15.62v44.46h-21.76v-111.46h43.68c10.54,0,19.2,3.08,25.99,9.24,6.78,6.16,10.18,14.46,10.18,24.89,0,14.51-6.79,24.27-20.35,29.27l24.89,48.06Zm-26.3-77.34c0-4.49-1.51-8.06-4.54-10.72-3.03-2.66-6.79-3.99-11.27-3.99h-20.51v29.43h20.51c4.59,0,8.38-1.3,11.35-3.91,2.97-2.61,4.46-6.21,4.46-10.8Z"/><path class="cls-6" d="m579.56,192.77h-21.76v-111.46h21.76v111.46Z"/><path class="cls-6" d="m650.01,157.55h-48.22v-18.94h48.22v18.94Z"/><path class="cls-6" d="m744.41,159.9c0,11.06-4.28,19.62-12.84,25.67-7.51,5.43-17.01,8.14-28.49,8.14-17.33,0-30.89-4.9-40.7-14.72l14.09-14.09c6.26,6.26,15.24,9.39,26.93,9.39,13.15,0,19.73-4.59,19.73-13.77,0-7.62-4.44-12.05-13.31-13.31l-13.46-1.92c-19.73-2.71-29.59-13.09-29.59-31.13,0-10.85,3.86-19.29,11.58-25.34,7.1-5.63,16.18-8.45,27.24-8.45,15.03,0,27.03,4.33,36.01,12.99l-13.82,13.62c-5.44-5.11-13.09-7.67-22.92-7.67-4.92,0-8.9,1.1-11.93,3.29-3.56,2.5-5.34,6.11-5.34,10.8,0,6.99,4.59,11.12,13.78,12.37l13.15,1.88c19.93,2.82,29.9,13.57,29.9,32.25Z"/><path class="cls-6" d="m843.03,158.49c-1.78,10.96-6.29,19.57-13.54,25.83-7.25,6.26-16.41,9.39-27.47,9.39-11.9,0-21.92-4.07-30.06-12.21-4.91-4.9-8.14-11.32-9.71-19.26-.84-4.28-1.25-12.68-1.25-25.21s.42-20.72,1.25-25.2c1.46-7.93,4.7-14.35,9.71-19.26,8.24-8.14,18.26-12.21,30.06-12.21,11.17,0,20.32,3.11,27.47,9.32,7.15,6.21,11.66,14.85,13.54,25.91h-22.07c-2.5-10.54-8.77-15.81-18.79-15.81-6.58,0-11.64,2.45-15.19,7.36-2.82,3.97-4.23,13.93-4.23,29.9v10.02c0,1.98.1,4.07.31,6.26,1.36,13.99,7.72,20.98,19.1,20.98,9.91,0,16.18-5.27,18.79-15.81h22.07Z"/><path class="cls-6" d="m940.41,137.04c0,11.38-.47,19.78-1.41,25.21-1.36,7.83-4.59,14.25-9.71,19.26-8.25,8.14-18.27,12.21-30.06,12.21s-21.97-4.07-30.21-12.21c-4.91-4.8-8.14-11.22-9.71-19.26-.84-4.28-1.25-12.68-1.25-25.21s.42-20.72,1.25-25.2c1.46-7.93,4.7-14.35,9.71-19.26,8.24-8.14,18.32-12.21,30.21-12.21s21.92,4.07,30.06,12.21c4.9,4.91,8.14,11.33,9.71,19.26.94,4.7,1.41,13.1,1.41,25.2Zm-21.76,0v-8.14c0-3.13-.11-5.84-.32-8.14-1.26-13.98-7.68-20.98-19.26-20.98s-17.57,6.99-19.25,20.98v16.28c-.11,7.2,0,12.63.31,16.28,1.35,13.99,7.72,20.98,19.1,20.98,6.37,0,11.43-2.5,15.19-7.51,2.82-3.76,4.23-13.67,4.23-29.75Z"/><path class="cls-6" d="m1047.02,192.77h-25.39l-21.62-44.46h-15.62v44.46h-21.76v-111.46h43.68c10.54,0,19.2,3.08,25.99,9.24,6.78,6.16,10.18,14.46,10.18,24.89,0,14.51-6.79,24.27-20.35,29.27l24.89,48.06Zm-26.3-77.34c0-4.49-1.51-8.06-4.54-10.72-3.03-2.66-6.79-3.99-11.27-3.99h-20.51v29.43h20.51c4.59,0,8.38-1.3,11.35-3.91,2.97-2.61,4.46-6.21,4.46-10.8Z"/><path class="cls-6" d="m1138.44,192.77h-73.42v-111.46h73.42v19.41h-51.66v26.14h43.99v19.41h-43.99v27.08h51.66v19.41Z"/><rect class="cls-7" x="366.12" y="307.36" width="293.64" height="472.1"/><rect class="cls-8" x="659.09" y="307.36" width="293.64" height="472.1"/><path class="cls-2" d="m366.79,307.36h-199.13c-51.17,0-92.64,41.83-92.64,93.43v285.25c0,51.6,41.48,93.43,92.64,93.43h199.13v-472.1Z"/><path class="cls-5" d="m1245.03,779.46h199.13c51.16,0,92.64-41.83,92.64-93.43v-285.25c0-51.6-41.48-93.43-92.64-93.43h-199.13v472.1Z"/><path class="cls-9" d="m270.31,604.3h-80.95l-16.39,49.28h-34.25l77.58-220.35h27.08l77.58,220.35h-34.1l-16.54-49.28Zm-9.22-29.59l-30.88-96.4h-.59l-30.88,96.4h62.35Z"/><path class="cls-10" d="m443.5,433.24h82.72c20.99.2,36.75,5.64,47.29,16.32,10.64,10.79,15.96,25.04,15.96,42.77.2,9.07-1.9,17.73-6.3,25.99-2.24,3.93-5.46,7.66-9.66,11.19-4.2,3.73-9.37,7.1-15.51,10.13v.6c11.65,3.12,20.45,9.42,26.42,18.89,5.58,9.77,8.37,20.4,8.37,31.88-.2,19.05-5.96,34.11-17.29,45.19-11.23,11.59-25.25,17.38-42.05,17.38h-89.95v-220.35Zm32.31,29.6v63.36h46.73c11.82,0,20.51-3.19,26.08-9.57,5.66-5.88,8.5-13.27,8.5-22.18s-2.84-16.46-8.5-22.64c-5.57-5.77-14.26-8.76-26.08-8.97h-46.73Zm0,92.95v66.38h49.89c12.03-.2,20.84-3.59,26.41-10.16,5.57-6.46,8.37-14.14,8.37-23.03s-2.79-16.87-8.37-23.34c-5.58-6.37-14.38-9.65-26.41-9.85h-49.89Z"/><path class="cls-4" d="m871.82,592.03c-4.69,20.42-13.62,36.11-26.8,47.08-13.57,10.87-29.63,16.3-48.18,16.3-16.78-.41-30.78-4.63-42-12.69-11.41-7.76-19.71-16.73-24.87-26.91-1.56-3.32-2.98-6.5-4.24-9.52-1.17-3.12-2.15-7.05-2.93-11.79-1.46-8.87-2.19-25.89-2.19-51.08s.73-42.72,2.2-51.39c1.56-8.67,3.95-15.67,7.17-21.01,5.17-10.17,13.47-19.24,24.89-27.2,11.22-8.06,25.23-12.19,42.01-12.39,20.59.21,37.38,6.49,50.36,18.86,12.98,12.47,21.18,27.92,24.59,46.33h-34.31c-2.64-8.89-7.43-16.46-14.37-22.72-7.23-5.95-16.03-9.03-26.39-9.23-7.63.21-14.18,1.77-19.65,4.69-5.57,3.03-10.07,6.82-13.49,11.36-4.2,4.75-6.98,10.85-8.36,18.33-1.56,7.87-2.34,22.66-2.34,44.38s.78,36.4,2.35,44.07c1.37,7.68,4.15,13.88,8.36,18.63,3.42,4.54,7.92,8.23,13.49,11.05,5.47,3.33,12.03,5,19.65,5,18.19,0,31.78-10.05,40.78-30.14h34.27Z"/><path class="cls-11" d="m1330.39,433.24h136.34v31.42h-104.03v63.05h88.8v29.6h-88.8v64.86h104.03v31.42h-136.34v-220.35Z"/><path class="cls-1" d="m1102.31,868.35c-109.73,0-199-89.14-199-198.7v-252.47c0-109.57,89.27-198.7,199-198.7s199,89.13,199,198.7v252.47c0,109.56-89.27,198.7-199,198.7Z"/><path class="cls-3" d="m1274.44,669.64c0,94.52-77.07,171.14-172.14,171.14h0c-95.07,0-172.14-76.62-172.14-171.14v-252.47c0-94.52,77.07-171.14,172.14-171.14h0c95.07,0,172.14,76.62,172.14,171.14v252.47Z"/><path class="cls-1" d="m1225.83,542.15c0,32.79-.84,54.66-2.52,65.59-4.21,27.75-15.91,48.92-35.11,63.49-19.2,14.58-43.1,21.87-71.69,21.87h-108.06v-299.37h108.06c28.31,0,52.07,7.15,71.27,21.44,19.2,14.29,31.04,35.18,35.53,62.65,1.68,10.37,2.52,31.82,2.52,64.33Zm-58.45,0v-26.07c0-11.49-.7-19.76-2.1-24.81-1.68-11.49-5.19-20.46-10.51-26.91-10.09-12.33-24.67-18.5-43.73-18.5h-44.15v195.1h44.15c19.06,0,33.64-6.16,43.73-18.5,6.16-7.57,10.09-20.46,11.77-38.68.56-6.16.84-20.04.84-41.63Z"/></g></svg>