<?xml version="1.0" encoding="UTF-8"?><svg id="Calque_2" xmlns="http://www.w3.org/2000/svg" viewBox="0 0 1611.82 887.03"><defs><style>.cls-1{fill:#fff;}.cls-2{fill:#007518;}.cls-3{fill:#f39200;}.cls-4{fill:#fff7bf;}.cls-5{fill:#dd1e00;}.cls-6{fill:#706f6f;}.cls-7{fill:#95c11f;}.cls-8{fill:#ffde00;}.cls-9{fill:#f3c37a;}.cls-10{fill:#91b589;}.cls-11{fill:#dd7e6f;}</style></defs><g id="Capa_1"><path class="cls-1" d="m1611.82,661.06c0,99.11-83.66,179.46-186.85,179.46H186.85C83.65,840.52,0,760.17,0,661.06V179.46C0,80.35,83.65,0,186.85,0h1238.12c103.19,0,186.85,80.35,186.85,179.46v481.6Z"/><path class="cls-6" d="m235.46,192.77h-19.36l-44.2-68.34v68.34h-21.76v-111.46h19.41l44.15,68.26v-68.26h21.76v111.46Z"/><path class="cls-6" d="m341.76,154.57c0,11.69-3.89,21.13-11.66,28.34-7.78,7.2-17.56,10.8-29.35,10.8s-21.5-3.55-29.12-10.65c-7.93-7.3-11.9-16.8-11.9-28.49v-73.27h21.76v72.48c0,6.16,1.7,11.12,5.09,14.87,3.39,3.76,8.11,5.64,14.17,5.64s10.93-1.88,14.32-5.64c3.39-3.76,5.09-8.71,5.09-14.87v-72.48h21.6v73.27Z"/><path class="cls-6" d="m437.73,100.72h-29.12v92.05h-21.76v-92.05h-29.12v-19.41h80v19.41Z"/><path class="cls-6" d="m539.8,192.77h-25.39l-21.62-44.46h-15.62v44.46h-21.76v-111.46h43.68c10.54,0,19.2,3.08,25.99,9.24,6.78,6.16,10.18,14.46,10.18,24.89,0,14.51-6.79,24.27-20.35,29.27l24.89,48.06Zm-26.3-77.34c0-4.49-1.51-8.06-4.54-10.72-3.03-2.66-6.79-3.99-11.27-3.99h-20.51v29.43h20.51c4.59,0,8.38-1.3,11.35-3.91,2.97-2.61,4.46-6.21,4.46-10.8Z"/><path class="cls-6" d="m579.56,192.77h-21.76v-111.46h21.76v111.46Z"/><path class="cls-6" d="m650.01,157.55h-48.22v-18.94h48.22v18.94Z"/><path class="cls-6" d="m744.41,159.9c0,11.06-4.28,19.62-12.84,25.67-7.51,5.43-17.01,8.14-28.49,8.14-17.33,0-30.89-4.9-40.7-14.72l14.09-14.09c6.26,6.26,15.24,9.39,26.93,9.39,13.15,0,19.73-4.59,19.73-13.77,0-7.62-4.44-12.05-13.31-13.31l-13.46-1.92c-19.73-2.71-29.59-13.09-29.59-31.13,0-10.85,3.86-19.29,11.58-25.34,7.1-5.63,16.18-8.45,27.24-8.45,15.03,0,27.03,4.33,36.01,12.99l-13.82,13.62c-5.45-5.11-13.09-7.67-22.92-7.67-4.92,0-8.9,1.1-11.93,3.29-3.56,2.5-5.34,6.11-5.34,10.8,0,6.99,4.59,11.12,13.78,12.37l13.15,1.88c19.93,2.82,29.9,13.57,29.9,32.25Z"/><path class="cls-6" d="m843.03,158.49c-1.78,10.96-6.29,19.57-13.54,25.83-7.25,6.26-16.41,9.39-27.47,9.39-11.9,0-21.92-4.07-30.06-12.21-4.91-4.9-8.14-11.32-9.71-19.26-.84-4.28-1.25-12.68-1.25-25.21s.42-20.72,1.25-25.2c1.46-7.93,4.7-14.35,9.71-19.26,8.24-8.14,18.26-12.21,30.06-12.21,11.17,0,20.33,3.11,27.47,9.31,7.15,6.21,11.66,14.85,13.54,25.91h-22.07c-2.5-10.54-8.77-15.81-18.79-15.81-6.58,0-11.64,2.45-15.19,7.36-2.82,3.97-4.23,13.93-4.23,29.9v10.02c0,1.98.1,4.07.31,6.26,1.35,13.99,7.72,20.98,19.1,20.98,9.91,0,16.18-5.27,18.79-15.81h22.07Z"/><path class="cls-6" d="m940.41,137.04c0,11.38-.47,19.78-1.41,25.21-1.36,7.83-4.59,14.25-9.71,19.26-8.25,8.14-18.27,12.21-30.06,12.21s-21.97-4.07-30.21-12.21c-4.91-4.8-8.14-11.22-9.71-19.26-.84-4.28-1.25-12.68-1.25-25.21s.42-20.72,1.25-25.2c1.46-7.93,4.7-14.35,9.71-19.26,8.24-8.14,18.32-12.21,30.21-12.21s21.92,4.07,30.06,12.21c4.9,4.91,8.14,11.33,9.71,19.26.94,4.7,1.41,13.1,1.41,25.2Zm-21.76,0v-8.14c0-3.13-.11-5.84-.32-8.14-1.26-13.98-7.68-20.98-19.26-20.98s-17.57,6.99-19.25,20.98v16.28c-.11,7.2,0,12.63.31,16.28,1.35,13.99,7.72,20.98,19.1,20.98,6.37,0,11.43-2.5,15.19-7.51,2.82-3.76,4.23-13.67,4.23-29.75Z"/><path class="cls-6" d="m1047.02,192.77h-25.39l-21.62-44.46h-15.62v44.46h-21.76v-111.46h43.68c10.54,0,19.2,3.08,25.99,9.24,6.78,6.16,10.18,14.46,10.18,24.89,0,14.51-6.79,24.27-20.35,29.27l24.89,48.06Zm-26.3-77.34c0-4.49-1.51-8.06-4.54-10.72-3.03-2.66-6.79-3.99-11.27-3.99h-20.51v29.43h20.51c4.59,0,8.38-1.3,11.35-3.91,2.97-2.61,4.46-6.21,4.46-10.8Z"/><path class="cls-6" d="m1138.44,192.77h-73.42v-111.46h73.42v19.41h-51.66v26.14h43.99v19.41h-43.99v27.08h51.66v19.41Z"/><rect class="cls-8" x="659.09" y="306.17" width="293.64" height="472.1"/><rect class="cls-3" x="952.06" y="306.17" width="293.64" height="472.1"/><path class="cls-2" d="m366.79,306.17h-199.13c-51.17,0-92.64,41.83-92.64,93.42v285.25c0,51.6,41.48,93.43,92.64,93.43h199.13v-472.1Z"/><path class="cls-5" d="m1245.03,778.27h199.13c51.17,0,92.64-41.83,92.64-93.43v-285.25c0-51.6-41.48-93.42-92.64-93.42h-199.13v472.1Z"/><path class="cls-10" d="m252.18,603.11h-80.95l-16.39,49.28h-34.25l77.58-220.35h27.08l77.58,220.35h-34.1l-16.54-49.28Zm-9.22-29.59l-30.88-96.4h-.59l-30.88,96.4h62.36Z"/><path class="cls-4" d="m903.13,590.84c-4.69,20.42-13.62,36.11-26.8,47.08-13.57,10.86-29.63,16.3-48.18,16.3-16.78-.4-30.78-4.63-42-12.69-11.41-7.76-19.71-16.72-24.88-26.9-1.56-3.33-2.97-6.5-4.24-9.52-1.17-3.12-2.15-7.05-2.93-11.79-1.46-8.87-2.19-25.89-2.19-51.08s.73-42.72,2.2-51.38c1.56-8.67,3.95-15.67,7.17-21.01,5.17-10.18,13.47-19.25,24.89-27.2,11.22-8.06,25.23-12.19,42.01-12.39,20.59.21,37.38,6.49,50.36,18.86,12.98,12.47,21.18,27.92,24.59,46.33h-34.31c-2.64-8.89-7.43-16.46-14.37-22.72-7.23-5.96-16.03-9.03-26.39-9.24-7.62.21-14.18,1.77-19.65,4.69-5.57,3.03-10.07,6.82-13.49,11.36-4.2,4.75-6.99,10.85-8.36,18.33-1.56,7.88-2.34,22.67-2.34,44.37s.78,36.4,2.35,44.07c1.37,7.68,4.16,13.88,8.36,18.63,3.42,4.54,7.92,8.23,13.49,11.06,5.47,3.33,12.03,5,19.65,5,18.19,0,31.78-10.05,40.78-30.14h34.27Z"/><path class="cls-9" d="m1026.14,432.05h74.68c28.89.21,50.57,12.6,65.02,37.18,5.17,8.26,8.44,16.92,9.8,25.99,1.07,9.07,1.61,24.74,1.61,47,0,23.68-.83,40.2-2.49,49.57-.78,4.74-1.96,8.97-3.51,12.7-1.66,3.62-3.66,7.4-6,11.33-6.25,10.38-14.94,18.95-26.06,25.69-11.03,7.26-24.55,10.88-40.56,10.88h-72.48v-220.35Zm32.31,188.93h38.69c18.17,0,31.37-6.41,39.57-19.23,3.62-4.74,5.91-10.75,6.89-18.02.88-7.17,1.32-20.6,1.32-40.29s-.44-32.92-1.32-41.2c-1.17-8.28-3.96-14.99-8.35-20.14-8.99-12.82-21.69-19.03-38.11-18.63h-38.69v157.51Z"/><path class="cls-11" d="m1320.5,432.05h136.34v31.42h-104.04v63.05h88.81v29.59h-88.81v64.86h104.04v31.42h-136.34v-220.35Z"/><path class="cls-1" d="m525.54,887.03c-109.73,0-199-94.59-199-210.85v-267.91c0-116.27,89.27-210.85,199-210.85s199,94.58,199,210.85v267.91c0,116.26-89.27,210.85-199,210.85Z"/><path class="cls-7" d="m699.96,676.18c0,100.3-77.07,181.6-172.14,181.6h0c-95.07,0-172.14-81.31-172.14-181.6v-267.91c0-100.3,77.07-181.6,172.14-181.6h0c95.07,0,172.14,81.31,172.14,181.6v267.91Z"/><path class="cls-1" d="m642.32,605.71c0,26.91-8.48,48-25.44,63.28-16.96,15.28-39.04,22.92-66.22,22.92h-125.3v-299.37h120.25c27.19,0,49.41,7.29,66.64,21.87,17.24,14.58,25.86,35.32,25.86,62.23,0,28.59-12.34,49.19-37,61.81,27.47,12.61,41.21,35.04,41.21,67.27Zm-62.65-126.56c0-10.93-3.65-19.41-10.93-25.44-7.29-6.03-16.54-9.04-27.75-9.04h-57.18v68.96h57.18c11.49,0,20.81-2.94,27.96-8.83,7.15-5.89,10.72-14.43,10.72-25.65Zm4.21,123.41c0-11.27-3.72-20.23-11.14-26.85-7.43-6.62-16.75-9.94-27.96-9.94h-60.97v74h60.97c11.77,0,21.23-3.24,28.38-9.72,7.15-6.49,10.72-15.65,10.72-27.49Z"/></g></svg>